<?xml version="1.0" encoding="utf-8"?>
<!-- Generator: Adobe Illustrator 19.2.0, SVG Export Plug-In . SVG Version: 6.00 Build 0)  -->
<svg version="1.1" id="Layer_1" xmlns="http://www.w3.org/2000/svg" xmlns:xlink="http://www.w3.org/1999/xlink" x="0px" y="0px"
	 viewBox="0 0 77.1 37.1" style="enable-background:new 0 0 77.1 37.1;" xml:space="preserve">
<style type="text/css">
	.st0{fill:#FFFFFF;}
</style>
<g>
	<g>
		<path class="st0" d="M26.3,0.4h2.9c2.6,0,4.5,1.8,4.5,4.2l0,0c0,2.4-1.8,4.2-4.5,4.2h-2.9V0.4z M27.3,1.3v6.6h2
			c2.1,0,3.5-1.4,3.5-3.3l0,0c0-1.9-1.4-3.3-3.5-3.3L27.3,1.3L27.3,1.3z"/>
		<path class="st0" d="M35.6,0.4h6.1v0.9h-5.1v2.9h4.6v0.9h-4.6V8h5.2v0.9h-6.2V0.4z"/>
		<path class="st0" d="M43.5,0.4h0.9l5.3,6.7V0.4h0.9v8.4h-0.8l-5.4-6.9v6.9h-0.9V0.4z"/>
		<path class="st0" d="M52.1,0.4h1.1l3,7.2l3-7.2h1l-3.6,8.5h-0.8L52.1,0.4z"/>
		<path class="st0" d="M61.7,0.4h6.1v0.9h-5.1v2.9h4.6v0.9h-4.6V8h5.2v0.9h-6.1V0.4H61.7z"/>
		<path class="st0" d="M69.7,0.4h3.6c1,0,1.9,0.3,2.4,0.8c0.4,0.4,0.6,1,0.6,1.7l0,0c0,1.4-1,2.2-2.3,2.4l2.6,3.4h-1.2L73,5.4h-2.4
			v3.3h-0.9V0.4z M73.2,4.7c1.3,0,2.2-0.6,2.2-1.7l0,0c0-1-0.8-1.7-2.1-1.7h-2.7v3.4L73.2,4.7L73.2,4.7z"/>
	</g>
	<g>
		<path class="st0" d="M36.4,20.6l0.6-0.7c0.9,0.8,1.7,1.2,2.9,1.2c1.1,0,1.9-0.6,1.9-1.4l0,0c0-0.8-0.4-1.2-2.2-1.6
			c-1.9-0.4-2.8-1-2.8-2.4l0,0c0-1.3,1.2-2.3,2.8-2.3c1.2,0,2.1,0.3,3,1L42,15.1c-0.8-0.6-1.6-0.9-2.4-0.9c-1.1,0-1.8,0.6-1.8,1.4
			l0,0c0,0.8,0.4,1.2,2.3,1.6s2.7,1.1,2.7,2.4l0,0c0,1.4-1.2,2.4-2.9,2.4C38.5,21.9,37.4,21.5,36.4,20.6z"/>
		<path class="st0" d="M46.5,14.3h-2.8v-0.9h6.6v0.9h-2.8v7.5h-1L46.5,14.3L46.5,14.3z"/>
		<path class="st0" d="M51,17.6L51,17.6c0-2.3,1.7-4.4,4.3-4.4s4.3,2,4.3,4.3l0,0c0,2.3-1.7,4.3-4.3,4.3S51,19.9,51,17.6z
			 M58.6,17.6L58.6,17.6c0-1.9-1.4-3.5-3.3-3.5S52,15.6,52,17.5l0,0c0,1.9,1.4,3.5,3.3,3.5S58.6,19.5,58.6,17.6z"/>
		<path class="st0" d="M61.5,13.4h3.6c1,0,1.9,0.3,2.4,0.8c0.4,0.4,0.6,1,0.6,1.7l0,0c0,1.4-1,2.2-2.3,2.4l2.6,3.4h-1.2l-2.4-3.3
			h-2.4v3.3h-0.9L61.5,13.4L61.5,13.4z M65,17.7c1.3,0,2.2-0.6,2.2-1.7l0,0c0-1-0.8-1.7-2.1-1.7h-2.6v3.4L65,17.7L65,17.7z"/>
		<path class="st0" d="M72.4,18.5l-3.5-5.1h1.2l2.8,4.2l2.9-4.2h1.1l-3.5,5.1v3.3h-1V18.5z"/>
	</g>
	<g>
		<path class="st0" d="M0.2,30.6L0.2,30.6c0-2.4,1.8-4.4,4.2-4.4c1.5,0,2.4,0.5,3.3,1.3l-0.6,0.7C6.4,27.5,5.6,27,4.5,27
			c-1.9,0-3.3,1.5-3.3,3.4l0,0c0,1.9,1.4,3.5,3.3,3.5c1.2,0,1.9-0.4,2.7-1.2l0.6,0.6c-0.9,0.9-1.8,1.5-3.4,1.5
			C2,34.9,0.2,33,0.2,30.6z"/>
		<path class="st0" d="M8.7,30.6L8.7,30.6c0-2.3,1.7-4.4,4.3-4.4s4.3,2,4.3,4.3l0,0c0,2.3-1.7,4.3-4.3,4.3S8.7,32.9,8.7,30.6z
			 M16.2,30.6L16.2,30.6c0-1.9-1.4-3.5-3.3-3.5s-3.3,1.5-3.3,3.4l0,0c0,1.9,1.4,3.5,3.3,3.5S16.2,32.5,16.2,30.6z"/>
		<path class="st0" d="M19.1,26.4H20v7.5h4.7v0.9H19v-8.4H19.1z"/>
		<path class="st0" d="M26.4,26.4h0.9v7.5H32v0.9h-5.7v-8.4H26.4z"/>
		<path class="st0" d="M33.7,26.4h6.1v0.9h-5.1v2.9h4.6v0.9h-4.6V34h5.2v0.9h-6.1v-8.5H33.7z"/>
		<path class="st0" d="M41.3,30.6L41.3,30.6c0-2.4,1.8-4.4,4.2-4.4c1.5,0,2.4,0.5,3.3,1.3l-0.6,0.7c-0.7-0.7-1.5-1.2-2.6-1.2
			c-1.9,0-3.2,1.5-3.2,3.4l0,0c0,1.9,1.4,3.5,3.2,3.5c1.2,0,1.9-0.4,2.7-1.2l0.6,0.6c-0.9,0.9-1.8,1.5-3.4,1.5
			C43.1,34.9,41.3,33,41.3,30.6z"/>
		<path class="st0" d="M52.6,27.3h-2.8v-0.9h6.6v0.9h-2.8v7.5h-1V27.3z"/>
		<path class="st0" d="M60.7,26.4h1.1l3,7.2l3-7.2h1l-3.6,8.5h-0.8L60.7,26.4z"/>
		<path class="st0" d="M70.3,26.4h6.1v0.9h-5.1v2.9h4.6v0.9h-4.6V34h5.2v0.9h-6.1v-8.5H70.3z"/>
		<g id="_x30_Dhv3z_15_">
			<g>
				<path class="st0" d="M57,36.7c-0.2-0.3-0.2-0.5,0.2-0.5c0.7-0.1,1.2-0.6,1.2-1.3c0-1,0-2,0-2.9c0-0.1,0-0.2,0-0.3
					c-0.2,0-0.4,0-0.6,0s-0.3-0.1-0.3-0.3c0-0.2,0.2-0.3,0.3-0.3c0.2,0,0.4,0,0.7,0c0-0.1,0-0.3,0-0.4c0-1.4,0-2.9,0-4.3
					c0-0.9-0.4-1.3-1.2-1.4c-0.3-0.1-0.4-0.2-0.2-0.5c0.1-0.1,0.3-0.1,0.4,0c0.5,0.1,0.9,0.4,1.2,0.9c0.3-0.5,0.7-0.7,1.2-0.9
					c0.1,0,0.3-0.2,0.4,0c0.2,0.3,0.2,0.5-0.2,0.5c-0.7,0.1-1.2,0.6-1.2,1.3c0,1.5,0,3,0,4.5c0,0.1,0,0.2,0,0.3c0.2,0,0.5,0,0.7,0
					s0.4,0.1,0.3,0.3c0,0.1-0.2,0.2-0.3,0.2c-0.2,0-0.4,0-0.6,0h-0.1c0,0,0,2.3,0,3.4c0,0.6,0.5,1,1.2,1.1c0.4,0.1,0.4,0.2,0.2,0.5
					c-0.1,0.1-0.2,0.1-0.4,0c-0.5-0.1-0.9-0.4-1.2-0.8c-0.5,0.6-0.5,0.6-1.2,0.8C57.2,36.7,57.1,36.8,57,36.7z"/>
			</g>
		</g>
	</g>
</g>
</svg>
