<?xml version="1.0" encoding="utf-8"?>
<!-- Generator: Adobe Illustrator 19.2.0, SVG Export Plug-In . SVG Version: 6.00 Build 0)  -->
<svg version="1.1" id="Layer_1" xmlns="http://www.w3.org/2000/svg" xmlns:xlink="http://www.w3.org/1999/xlink" x="0px" y="0px"
	 viewBox="0 0 28 10.5" style="enable-background:new 0 0 28 10.5;" xml:space="preserve">
<style type="text/css">
	.st0{fill:#FFFFFF;}
</style>
<g>
	<path class="st0" d="M0,0.9h2.9c2.6,0,4.5,1.8,4.5,4.2v0c0,2.4-1.8,4.2-4.5,4.2H0V0.9z M0.9,1.8v6.6h2C5,8.4,6.4,7,6.4,5.1v0
		c0-1.9-1.4-3.3-3.5-3.3H0.9z"/>
	<path class="st0" d="M8.6,8.1l0.6-0.7c0.9,0.8,1.7,1.2,2.9,1.2c1.1,0,1.9-0.6,1.9-1.4v0c0-0.8-0.4-1.2-2.2-1.6
		c-1.9-0.4-2.8-1-2.8-2.4v0c0-1.3,1.2-2.3,2.8-2.3c1.2,0,2.1,0.3,3,1l-0.6,0.7c-0.8-0.6-1.6-0.9-2.4-0.9c-1.1,0-1.8,0.6-1.8,1.4v0
		c0,0.8,0.4,1.2,2.3,1.6C14,5.1,14.9,5.8,14.9,7v0c0,1.4-1.2,2.4-2.9,2.4C10.7,9.4,9.6,9,8.6,8.1z"/>
	<path class="st0" d="M16.3,5.1L16.3,5.1c0-2.4,1.8-4.4,4.2-4.4c1.5,0,2.4,0.5,3.3,1.3l-0.6,0.7c-0.7-0.7-1.5-1.2-2.6-1.2
		c-1.9,0-3.2,1.5-3.2,3.4v0c0,1.9,1.4,3.5,3.2,3.5c1.2,0,1.9-0.4,2.7-1.2L23.9,8c-0.9,0.9-1.8,1.5-3.4,1.5
		C18.1,9.5,16.3,7.6,16.3,5.1z"/>
</g>
<g id="_x30_Dhv3z_5_">
	<g>
		<path class="st0" d="M25.1,10.4C24.9,10.1,25,10,25.3,10c0.6-0.1,1-0.5,1-1.1c0-0.8,0-1.7,0-2.5c0-0.1,0-0.2,0-0.3
			c-0.2,0-0.4,0-0.5,0c-0.2,0-0.3,0-0.3-0.2c0-0.2,0.1-0.2,0.3-0.2c0.2,0,0.4,0,0.6,0c0-0.1,0-0.2,0-0.3c0-1.2,0-2.4,0-3.6
			c0-0.7-0.3-1.1-1-1.2c-0.3,0-0.3-0.2-0.1-0.4c0.1-0.1,0.2,0,0.4,0c0.4,0.1,0.8,0.3,1,0.7c0.3-0.4,0.6-0.6,1-0.7
			c0.1,0,0.3-0.1,0.4,0c0.2,0.3,0.1,0.4-0.2,0.4c-0.6,0.1-1,0.5-1,1.1c0,1.3,0,2.5,0,3.8c0,0.1,0,0.2,0,0.3c0.2,0,0.4,0,0.6,0
			c0.2,0,0.3,0.1,0.3,0.2c0,0.1-0.2,0.2-0.3,0.2c-0.2,0-0.4,0-0.5,0l0,0c0,0,0,2,0,2.9c0,0.5,0.4,0.9,1,1c0.3,0.1,0.4,0.2,0.2,0.4
			c-0.1,0.1-0.2,0.1-0.4,0c-0.4-0.1-0.8-0.3-1-0.7c-0.4,0.5-0.4,0.5-1,0.7C25.3,10.4,25.2,10.5,25.1,10.4z"/>
	</g>
</g>
</svg>
